<?xml version="1.0" standalone="no"?>
<!DOCTYPE svg PUBLIC "-//W3C//DTD SVG 20010904//EN"
 "http://www.w3.org/TR/2001/REC-SVG-20010904/DTD/svg10.dtd">
<svg version="1.0" xmlns="http://www.w3.org/2000/svg"
 width="1024.000000pt" height="1024.000000pt" viewBox="0 0 1024.000000 1024.000000"
 preserveAspectRatio="xMidYMid meet">

<g transform="translate(0.000000,1024.000000) scale(0.100000,-0.100000)"
fill="#000000" stroke="none">
<path d="M3503 9055 c-190 -59 -314 -245 -359 -540 -29 -189 -13 -759 30
-1101 l13 -101 -48 -98 c-27 -54 -57 -128 -68 -164 -25 -83 -51 -258 -51 -345
0 -45 -4 -68 -12 -70 -7 -2 -38 -11 -68 -20 -202 -60 -386 -256 -461 -489 -66
-208 -45 -416 56 -552 20 -27 23 -45 28 -180 6 -147 15 -197 60 -322 41 -111
192 -353 301 -483 70 -83 261 -262 321 -301 39 -25 68 -51 71 -64 3 -13 1 -96
-5 -186 -13 -197 -14 -371 -1 -537 7 -104 12 -129 34 -167 29 -48 73 -85 124
-103 17 -7 46 -17 62 -23 l30 -11 0 -117 c0 -64 -4 -122 -9 -130 -12 -18 -73
4 -114 42 -24 22 -28 32 -23 55 13 53 12 56 -34 73 -81 30 -96 71 -120 323
-21 213 -86 334 -285 530 -88 86 -153 130 -241 161 -99 35 -176 34 -235 -4
-55 -34 -113 -111 -128 -169 -21 -76 2 -124 124 -250 79 -83 144 -171 184
-252 34 -67 110 -265 146 -378 96 -306 341 -503 657 -527 l96 -7 18 -71 c9
-39 26 -93 36 -121 11 -28 24 -64 30 -81 6 -16 37 -82 70 -145 32 -63 58 -118
58 -121 0 -3 -19 -11 -42 -18 -69 -20 -170 -71 -216 -108 -56 -46 -82 -99 -89
-183 l-6 -69 -36 -5 c-20 -3 -63 -8 -96 -11 -242 -25 -521 -88 -562 -127 -30
-28 -29 -42 4 -67 57 -45 407 -121 742 -161 623 -74 2050 -95 2641 -40 638 60
1066 137 1128 203 20 21 21 25 6 45 -45 64 -285 129 -443 120 -51 -3 -56 -1
-52 17 1 11 3 50 4 86 1 54 -4 74 -26 111 -50 86 -134 140 -269 175 -38 10
-68 23 -68 30 0 6 25 49 56 94 128 187 160 317 184 769 6 102 10 216 10 253 0
46 4 69 13 71 80 23 117 45 173 101 35 36 67 79 75 101 11 30 14 108 13 339 0
268 -8 393 -30 480 -5 20 3 29 58 66 142 96 287 226 381 343 113 140 140 177
179 241 122 203 168 353 168 546 0 108 0 109 34 156 62 87 80 159 81 313 0
100 -5 153 -19 205 -58 221 -214 427 -390 515 -43 22 -87 40 -98 40 -41 0 -58
19 -58 64 0 39 -28 213 -45 279 -9 35 12 37 45 3 12 -14 58 -49 101 -77 l79
-53 1 -50 c0 -75 14 -145 31 -162 18 -18 50 -7 88 28 48 46 155 124 194 141
22 10 62 21 90 24 78 8 224 64 316 122 76 48 175 145 210 205 33 60 60 156 60
217 0 61 -35 199 -64 257 -37 73 -130 152 -244 210 -189 95 -375 112 -594 54
-117 -31 -252 -132 -311 -233 -31 -53 -67 -152 -67 -185 0 -22 -16 -41 -26
-31 -2 2 3 91 11 198 23 290 30 614 16 744 -34 308 -138 531 -291 618 -250
143 -673 -3 -1021 -354 -52 -53 -117 -126 -144 -162 -27 -37 -54 -67 -59 -67
-6 0 -51 7 -101 16 -54 9 -183 17 -325 21 -205 4 -252 2 -370 -16 -74 -11
-144 -23 -156 -26 -16 -5 -29 5 -62 49 -148 196 -446 435 -659 529 -132 59
-341 83 -440 52z m155 -112 c-16 -2 -28 -11 -28 -19 0 -8 -9 -14 -20 -14 -11
0 -19 6 -17 13 2 14 32 25 67 25 23 -1 23 -1 -2 -5z m2902 -13 c11 -7 3 -10
-30 -9 -34 0 -40 2 -25 9 27 12 37 12 55 0z m-2710 -35 c0 -10 10 -15 29 -15
17 0 33 -4 36 -10 4 -6 -8 -10 -29 -10 -20 0 -36 4 -36 9 0 5 -15 12 -32 16
-33 7 -33 7 -8 15 37 12 40 11 40 -5z m2560 -3 c0 -4 -9 -8 -20 -9 -11 -1 -20
2 -20 8 0 5 9 9 20 9 11 0 20 -4 20 -8z m60 -2 c0 -5 -7 -7 -15 -4 -8 4 -15 8
-15 10 0 2 7 4 15 4 8 0 15 -4 15 -10z m-160 -40 c0 -5 -4 -10 -10 -10 -5 0
-10 5 -10 10 0 6 5 10 10 10 6 0 10 -4 10 -10z m-819 -514 c206 -36 311 -68
477 -147 184 -87 318 -191 441 -344 111 -137 146 -210 66 -137 -128 116 -253
203 -386 264 -333 156 -621 221 -984 222 -197 1 -313 -12 -490 -55 -289 -71
-565 -207 -794 -394 -44 -36 -83 -65 -86 -65 -22 0 134 199 216 275 262 245
559 364 1024 409 106 11 376 -4 516 -28z m-71 -262 c144 -21 355 -78 465 -124
17 -7 46 -19 65 -27 121 -51 274 -144 387 -236 57 -46 100 -94 91 -102 -2 -2
-41 26 -88 62 -169 128 -329 200 -598 268 -209 53 -348 68 -607 69 -416 0
-682 -57 -1000 -215 -119 -60 -149 -76 -235 -131 l-45 -29 50 48 c117 111 217
179 374 255 183 88 371 142 596 173 123 17 395 12 545 -11z m-373 -202 c7 -5
-36 -23 -109 -46 -268 -83 -551 -250 -751 -445 -163 -158 -252 -304 -305 -501
-23 -85 -26 -114 -26 -285 -1 -154 2 -200 16 -244 10 -29 15 -57 12 -62 -21
-35 -112 48 -162 147 -65 130 -96 352 -73 525 29 217 100 404 188 493 118 120
399 266 655 340 187 54 519 101 555 78z m2874 -61 c233 -67 359 -199 367 -386
4 -76 2 -84 -32 -148 -20 -38 -46 -78 -56 -90 -11 -11 -20 -24 -20 -29 0 -4
-18 -21 -40 -37 -21 -15 -36 -31 -33 -35 3 -3 0 -6 -7 -6 -7 0 -20 -8 -29 -18
-24 -26 -69 -47 -97 -44 -13 1 -24 -3 -24 -8 0 -6 -9 -10 -20 -10 -11 0 -20
-5 -20 -11 0 -6 -12 -9 -27 -7 -16 2 -32 -2 -38 -9 -6 -8 -44 -13 -105 -13
-159 -2 -177 -1 -160 10 11 7 3 10 -30 10 -28 0 -40 3 -32 9 10 6 5 10 -16 14
-16 3 -37 13 -45 22 -9 8 -28 15 -44 15 -22 0 -25 2 -13 10 12 8 11 10 -5 10
-11 0 -27 9 -35 19 -7 11 -17 18 -20 16 -13 -8 -62 57 -92 121 -95 203 -3 446
209 553 56 28 138 53 208 64 55 9 189 -3 256 -22z m-4244 -349 c-30 -59 -64
-137 -76 -174 -26 -78 -47 -91 -38 -24 13 93 68 225 128 306 30 40 34 43 37
22 2 -12 -20 -68 -51 -130z m2891 71 c79 -117 120 -218 113 -278 -3 -19 -171
298 -171 322 0 27 20 12 58 -44z m-305 -96 c22 -17 30 -34 34 -69 14 -124
-141 -204 -195 -101 -28 53 -2 141 52 174 41 25 75 24 109 -4z m708 -197 c48
-26 115 -239 144 -456 8 -63 15 -119 15 -124 0 -10 -126 -100 -140 -100 -6 0
-10 10 -10 23 0 35 20 200 26 221 6 17 2 18 -37 12 -24 -4 -48 -11 -55 -17 -7
-6 -14 -68 -19 -171 -7 -159 -8 -162 -41 -222 l-34 -61 0 275 c-1 151 -7 336
-14 410 -15 149 -16 145 48 192 40 29 83 36 117 18z m-3578 -21 c60 -16 70
-42 57 -141 -14 -100 -17 -330 -7 -573 l7 -180 -21 45 c-11 25 -34 103 -50
175 -50 217 -84 268 -183 271 -36 2 -51 6 -51 16 2 58 19 159 36 215 48 156
104 202 212 172z m3086 -405 c27 -34 28 -103 3 -134 -16 -20 -24 -22 -57 -16
-22 4 -51 20 -68 37 -25 26 -29 35 -24 67 8 47 38 72 87 72 30 0 43 -6 59 -26z
m-3267 -44 c21 -6 42 -20 48 -30 15 -28 24 -140 13 -167 -8 -22 -10 -22 -66
22 l-57 45 0 63 c0 82 1 84 62 67z m2833 -196 c41 -19 60 -62 60 -134 -1 -51
-10 -79 -49 -150 -8 -14 -20 -38 -27 -53 -14 -31 -55 -57 -90 -57 -34 0 -107
47 -124 80 -24 47 -18 95 26 196 31 69 50 99 73 114 37 24 86 26 131 4z
m-2909 -63 c23 -11 60 -35 82 -55 21 -20 46 -36 54 -36 32 0 89 -91 103 -165
16 -88 14 -139 -9 -166 -11 -14 -28 -36 -36 -48 -8 -11 -19 -21 -25 -21 -14 0
-47 -68 -39 -81 3 -5 -4 -30 -16 -55 -21 -42 -23 -44 -40 -29 -17 15 -20 14
-45 -18 -29 -40 -46 -49 -65 -37 -10 6 -6 15 14 36 41 43 84 144 93 214 8 59
10 63 47 84 55 31 70 56 50 84 -12 18 -25 22 -64 22 -82 0 -122 -47 -159 -185
-15 -57 -64 -112 -112 -126 -30 -10 -38 -16 -33 -28 73 -178 67 -197 -64 -242
-73 -24 -149 -24 -204 0 -75 32 -104 85 -114 203 -22 262 169 570 404 654 53
19 130 17 178 -5z m4205 -6 c129 -55 259 -215 323 -393 28 -79 30 -98 31 -212
0 -111 -3 -130 -24 -174 -19 -38 -26 -45 -33 -33 -7 14 -14 13 -56 -8 -59 -29
-125 -39 -205 -31 -56 6 -65 11 -80 36 -23 39 -22 108 3 145 11 17 20 42 20
57 0 23 -7 29 -50 43 -58 19 -85 51 -100 118 -33 149 -126 231 -190 167 -30
-30 -24 -55 21 -92 42 -35 42 -35 76 -188 5 -24 5 -25 -11 -5 -8 11 -16 24
-16 28 0 14 -28 37 -44 37 -9 0 -15 6 -14 13 2 6 -3 11 -11 9 -8 -2 -11 3 -8
13 9 23 -3 45 -24 45 -12 0 -19 7 -19 20 0 11 -9 35 -20 55 -39 70 -23 153 46
233 90 106 279 163 385 117z m-3747 -475 l37 -60 -25 -25 c-14 -14 -37 -25
-52 -25 l-27 0 7 77 c7 70 12 93 20 93 2 0 20 -27 40 -60z m3129 -24 l6 -80
-38 -38 c-21 -20 -37 -39 -35 -41 2 -2 -2 -4 -10 -4 -22 0 -76 -24 -76 -34 0
-5 -7 -9 -15 -9 -8 0 -20 -9 -27 -20 -7 -11 -19 -20 -27 -20 -8 0 -57 -32
-108 -71 -81 -62 -308 -189 -337 -189 -5 0 -53 -13 -106 -29 -183 -55 -307
-83 -548 -121 -40 -7 -171 -12 -290 -12 -223 0 -328 10 -542 52 -101 19 -137
28 -280 71 -36 10 -70 19 -75 19 -35 0 -216 87 -299 143 -76 51 -105 85 -106
119 0 21 -10 34 -40 54 -35 23 -115 123 -106 132 2 1 36 -31 77 -71 125 -124
214 -175 479 -275 161 -61 390 -116 635 -153 119 -17 466 -15 608 5 126 17
227 37 317 62 359 101 619 224 742 351 77 79 91 95 142 171 27 39 50 71 51 69
1 -1 5 -38 8 -81z m-3667 -84 c-20 -20 -22 -1 -4 31 11 20 12 21 16 3 2 -10
-3 -26 -12 -34z m3792 -204 c19 -19 15 -33 -22 -74 -19 -22 -58 -67 -87 -102
-78 -95 -180 -157 -195 -118 -7 18 5 31 73 83 60 46 163 144 163 155 0 11 42
68 50 68 3 0 11 -5 18 -12z m-3376 -59 c29 -33 93 -95 143 -137 114 -98 127
-111 120 -121 -8 -14 -145 43 -186 77 -29 25 -112 137 -153 210 -8 13 0 32 14
32 5 0 32 -27 62 -61z m3507 -78 l44 -38 -27 -45 c-50 -86 -29 -169 72 -279
41 -44 84 -78 129 -102 61 -32 68 -39 69 -67 1 -21 -2 -27 -7 -18 -6 9 -9 9
-9 1 0 -6 -9 -14 -19 -18 -10 -3 -22 -17 -25 -30 -4 -14 -13 -25 -21 -25 -19
0 -65 -47 -65 -67 0 -9 -3 -14 -6 -10 -3 3 -11 1 -18 -4 -57 -48 -73 -59 -84
-59 -24 0 -110 91 -150 158 -59 99 -85 190 -86 292 0 53 6 100 15 126 15 40
129 223 139 223 3 0 25 -17 49 -38z m-3597 -67 c68 -107 88 -160 88 -233 -1
-156 -64 -304 -174 -409 -40 -38 -80 -69 -89 -69 -9 0 -15 2 -13 5 5 4 -46 59
-50 55 -6 -5 -94 89 -94 100 0 12 -48 61 -60 62 -3 0 -5 11 -6 25 -1 21 8 29
61 53 81 37 127 76 170 143 73 113 83 174 38 216 -16 14 -39 32 -51 41 -23 15
-23 16 -4 26 10 5 38 26 62 46 23 20 48 34 54 32 6 -2 36 -44 68 -93z m3822
-58 c21 -9 51 -16 67 -16 16 0 29 -4 29 -8 0 -14 36 -52 48 -52 29 0 26 -104
-4 -161 -8 -17 -25 -35 -38 -40 -80 -37 -266 169 -266 293 0 24 3 47 6 51 4 3
32 -7 63 -23 31 -16 73 -36 95 -44z m-4019 14 c21 -40 19 -58 -10 -116 -45
-90 -155 -195 -204 -194 -9 1 -31 21 -48 45 -26 35 -33 54 -33 90 0 38 3 45
20 45 11 0 20 4 20 8 0 5 12 14 26 20 14 7 22 17 19 22 -4 6 -3 10 2 9 21 -4
31 2 29 18 0 10 8 19 19 21 11 2 22 8 25 12 8 12 84 49 102 50 10 0 24 -13 33
-30z m469 -185 c51 -42 97 -156 101 -249 2 -34 13 -91 25 -128 l22 -66 -37
-99 c-21 -54 -54 -127 -74 -163 -20 -36 -41 -74 -46 -85 -15 -28 -66 -21 -104
13 -16 15 -35 32 -42 37 -52 39 -79 55 -96 55 -15 0 -16 2 -3 10 12 8 11 10
-7 10 -15 0 -23 6 -23 18 0 10 -13 26 -30 35 -42 25 -39 54 11 102 50 50 114
142 147 214 24 52 39 171 41 329 l1 44 36 -22 c20 -11 55 -36 78 -55z m2780
38 c-4 -16 -12 -35 -18 -44 -16 -24 -91 -85 -155 -126 -31 -20 -67 -43 -81
-53 -42 -28 -260 -132 -299 -142 -77 -20 -261 -56 -356 -69 -67 -9 -200 -14
-400 -14 -332 0 -400 6 -670 60 -120 24 -156 33 -200 49 -22 8 -61 15 -87 16
-26 0 -50 5 -53 10 -3 6 -15 10 -26 10 -10 0 -19 4 -19 8 0 5 -22 15 -50 22
-27 7 -50 17 -50 22 0 4 -17 8 -37 8 -25 0 -33 3 -25 9 10 6 7 10 -12 15 -14
3 -26 13 -26 20 0 8 -4 16 -9 18 -10 3 -15 48 -12 121 1 35 5 47 16 47 8 0 62
-20 120 -45 267 -114 645 -183 1055 -192 346 -8 643 21 897 86 309 80 329 86
368 117 39 30 112 73 128 74 4 0 4 -12 1 -27z m275 -87 c0 -180 61 -331 193
-471 21 -22 38 -44 38 -50 0 -5 -30 -29 -66 -53 -35 -23 -62 -47 -59 -52 3 -6
-1 -10 -10 -10 -22 0 -63 -28 -112 -77 -49 -49 -83 -55 -105 -20 -46 74 -118
258 -129 334 -12 78 -11 86 9 130 12 27 26 83 32 126 16 121 56 180 150 221
59 26 59 25 59 -78z m-2544 -386 c-4 -6 42 -10 132 -10 91 -1 158 -6 198 -16
164 -43 677 -75 888 -55 236 22 360 40 378 57 18 16 167 28 151 12 -11 -11
-98 -34 -166 -43 -43 -6 -46 -8 -30 -20 11 -7 34 -16 52 -20 44 -9 40 -27 -13
-71 -62 -50 -116 -80 -240 -133 -127 -54 -425 -85 -584 -61 -179 28 -213 34
-306 57 -55 13 -134 39 -176 58 -42 19 -86 35 -97 35 -11 0 -22 4 -24 8 -1 4
-24 20 -51 35 -45 26 -177 145 -177 159 0 4 12 9 28 11 15 2 31 5 35 6 5 0 5
-3 2 -9z m2350 -518 c14 -59 32 -133 40 -164 19 -71 19 -111 3 -106 -12 4 -47
67 -91 167 -10 23 -23 39 -28 35 -5 -3 -9 2 -9 11 0 8 -13 42 -30 75 -16 33
-30 67 -30 77 0 15 -2 16 -10 3 -9 -13 -10 -13 -10 0 0 13 -1 13 -10 0 -13
-21 -28 -3 -34 40 -2 19 -9 50 -15 69 -6 21 -7 39 -1 45 5 7 7 29 6 51 -3 33
2 46 32 82 l36 43 63 -160 c34 -89 74 -209 88 -268z m-2556 308 c79 -97 91
-123 71 -158 -5 -9 -16 -45 -24 -79 -15 -62 -118 -324 -162 -411 -5 -10 -34
15 -49 41 -14 28 -15 40 -5 87 24 115 28 146 25 165 -11 61 -18 77 -43 100
l-27 25 39 113 c36 104 83 217 91 217 2 0 40 -45 84 -100z m331 -275 c116 -59
219 -89 430 -126 172 -31 544 -38 726 -14 176 23 246 17 339 -29 39 -19 82
-47 95 -61 l25 -27 -25 3 c-14 2 -31 0 -38 -5 -7 -4 -334 -10 -725 -12 -392
-3 -731 -7 -753 -10 -79 -9 -157 -103 -185 -221 -17 -71 -13 -963 5 -1029 34
-124 102 -216 198 -269 l53 -30 653 3 c358 1 652 0 652 -3 0 -17 -199 -97
-310 -124 -180 -44 -276 -53 -531 -48 -232 4 -293 13 -434 60 -165 55 -323
176 -341 261 -3 17 -29 66 -56 109 -58 92 -90 180 -118 326 -11 58 -26 109
-33 113 -21 14 -58 21 -66 12 -5 -5 -36 -119 -70 -254 -70 -279 -95 -470 -62
-470 18 0 76 61 114 120 23 36 49 66 58 68 10 2 69 -40 135 -95 66 -54 139
-114 164 -134 55 -44 221 -132 355 -188 l100 -42 5 -77 c19 -290 -3 -396 -99
-492 -37 -37 -70 -60 -97 -68 -50 -15 -403 -16 -549 -2 -169 16 -280 42 -320
74 -23 19 -27 27 -21 51 15 58 131 136 231 154 32 6 114 5 233 -3 100 -6 182
-9 182 -6 -1 17 -94 60 -195 91 -58 17 -113 66 -115 102 0 12 64 8 111 -8 24
-8 109 -21 188 -30 79 -8 155 -18 168 -21 48 -12 18 62 -36 91 -16 8 -69 19
-117 25 -49 6 -144 17 -212 25 -146 18 -177 31 -201 88 -10 23 -36 85 -59 137
-58 137 -73 248 -79 606 -6 317 -2 354 39 318 14 -13 40 -20 89 -22 62 -4 73
-2 94 18 13 12 33 52 44 89 11 37 43 115 71 175 109 234 142 341 185 612 32
203 35 214 46 214 5 0 32 -11 59 -25z m2531 -329 c16 -59 8 -592 -10 -624 -32
-59 -36 -22 -37 324 -1 186 0 342 3 346 10 17 34 -8 44 -46z m-3355 -156 c0
-107 6 -259 13 -337 15 -156 12 -180 -18 -164 -39 21 -44 64 -49 374 -4 309
-2 332 37 325 14 -3 16 -28 17 -198z m-722 137 c67 -51 69 -78 15 -162 -34
-52 -98 -125 -110 -125 -4 0 -46 39 -94 86 -78 78 -86 90 -81 115 15 76 86
122 178 116 42 -2 65 -10 92 -30z m3154 -110 c21 -22 26 -38 32 -119 5 -51 8
-274 8 -495 l0 -402 -27 -58 c-29 -60 -98 -132 -129 -134 -9 0 -316 0 -681 1
-538 1 -670 4 -691 15 -42 22 -105 97 -126 151 -18 46 -19 80 -19 499 l0 450
28 48 c16 28 41 54 57 60 20 9 226 12 775 11 l747 -2 26 -25z m-2333 -75 c6
-4 11 -38 13 -77 2 -38 8 -72 13 -73 6 -3 6 -9 -1 -17 -6 -7 -12 -26 -13 -43
-1 -23 -5 -28 -14 -20 -15 13 -22 51 -27 150 -4 86 1 101 29 80z m277 -13 c26
-38 -31 -389 -63 -389 -6 0 -21 24 -34 53 -26 55 -45 182 -45 296 l0 64 66 -6
c39 -3 70 -10 76 -18z m2694 -68 c13 -166 -10 -272 -64 -292 -20 -8 -25 -4
-39 29 -21 50 -33 126 -40 248 l-5 101 70 -1 71 0 7 -85z m-452 -26 c71 -283
73 -536 5 -737 -33 -99 -36 -97 -35 23 1 63 0 254 -2 424 -3 383 -3 399 3 394
2 -3 15 -50 29 -104z m-3056 53 c29 -32 112 -205 112 -234 0 -12 -67 -61 -131
-94 -77 -40 -150 -62 -166 -51 -7 5 -51 88 -101 192 -1 3 33 34 77 68 44 34
86 70 93 80 12 17 76 61 89 61 3 0 15 -10 27 -22z m137 -523 c3 -25 13 -61 21
-80 8 -19 14 -41 14 -49 0 -20 -166 -88 -205 -84 -26 3 -34 12 -62 67 -51 99
-48 105 50 135 45 15 100 34 122 45 22 10 43 17 46 15 4 -2 10 -24 14 -49z
m298 -370 c77 -43 87 -52 87 -77 l0 -28 -109 0 c-88 0 -120 4 -168 22 -32 12
-64 28 -72 36 -8 7 -24 20 -37 29 -31 20 -23 30 42 59 30 13 64 35 76 49 l22
25 35 -33 c20 -19 75 -56 124 -82z m516 -190 c0 -5 -15 8 -34 30 -20 23 -35
51 -35 65 0 21 6 16 35 -30 19 -30 34 -59 34 -65z m2317 -41 c67 -23 114 -68
114 -112 0 -45 -16 -72 -43 -72 -35 -1 -99 -34 -132 -70 -30 -31 -74 -60 -94
-60 -6 0 -1 21 10 48 11 26 31 90 44 144 20 84 39 138 49 138 1 0 25 -7 52
-16z m-181 -150 c-14 -49 -39 -118 -55 -153 -17 -35 -30 -69 -30 -77 0 -26 36
-14 69 21 28 31 37 35 84 35 28 1 81 7 117 15 94 21 97 20 98 -17 1 -23 -2
-28 -8 -18 -8 13 -10 13 -11 0 -1 -8 -1 -18 0 -22 0 -5 -3 -8 -9 -8 -6 0 -10
-9 -10 -20 0 -11 -4 -20 -8 -20 -4 0 -16 -13 -25 -30 -10 -16 -27 -34 -37 -40
-10 -5 -76 -15 -147 -20 -192 -16 -254 -27 -285 -55 -28 -24 -36 -49 -19 -59
4 -3 75 1 157 8 271 25 314 28 314 18 0 -29 -70 -73 -174 -112 -135 -49 -147
-56 -126 -70 20 -13 36 -12 155 5 180 26 270 16 375 -41 62 -34 120 -95 120
-127 0 -40 -30 -56 -160 -86 -121 -28 -211 -35 -445 -35 -301 0 -338 6 -402
70 -28 28 -43 52 -43 69 0 14 -4 25 -8 25 -16 0 -43 180 -44 284 0 92 3 110
24 148 21 38 36 49 153 108 72 36 144 74 160 85 62 40 171 134 204 174 19 23
36 40 38 38 2 -2 -8 -44 -22 -93z m-898 -399 c49 -34 80 -118 109 -295 7 -47
14 -93 14 -102 0 -17 -15 -17 -217 -11 -120 3 -219 7 -220 8 -7 5 27 325 35
342 12 22 52 59 72 66 35 13 186 7 207 -8z"/>
<path d="M7791 7678 c-4 -13 -36 -140 -71 -282 l-63 -260 22 -17 c26 -21 49
-15 61 15 4 11 36 135 70 275 67 270 67 283 16 289 -20 3 -28 -2 -35 -20z"/>
<path d="M7511 7510 c-44 -50 -81 -97 -81 -105 0 -22 159 -195 179 -195 22 0
41 19 41 43 0 10 -27 48 -59 85 l-60 66 51 58 c27 32 54 61 59 64 13 8 11 48
-3 62 -24 24 -47 10 -127 -78z"/>
<path d="M7892 7588 c-18 -18 -14 -53 9 -74 12 -10 39 -40 60 -65 l39 -47 -60
-66 c-33 -37 -60 -74 -60 -84 0 -23 19 -42 41 -42 21 0 173 163 177 190 4 23
-153 200 -177 200 -9 0 -22 -5 -29 -12z"/>
<path d="M5595 4770 c-3 -5 3 -10 14 -10 12 0 21 5 21 10 0 6 -6 10 -14 10 -8
0 -18 -4 -21 -10z"/>
<path d="M4876 3849 c-37 -10 -73 -45 -81 -78 -4 -18 -19 -32 -48 -46 -50 -24
-82 -79 -72 -124 8 -39 48 -80 83 -87 22 -4 31 -15 43 -49 21 -57 11 -73 -44
-73 -81 2 -137 -53 -137 -132 0 -51 23 -93 64 -115 l31 -17 -34 -69 c-45 -91
-52 -160 -21 -223 50 -104 179 -120 315 -41 38 22 44 23 95 11 62 -14 179 -13
237 3 21 6 61 11 88 11 85 0 145 56 145 136 0 36 -26 86 -53 104 -22 15 -22
16 -6 63 8 26 18 45 21 41 3 -3 23 -2 43 2 45 8 100 60 108 102 8 40 -8 95
-36 122 l-23 22 19 56 c44 133 4 233 -106 263 -22 6 -54 8 -72 5 -25 -5 -36
-1 -54 18 -12 13 -40 31 -62 41 -34 16 -45 16 -81 6 -45 -14 -108 -69 -108
-95 0 -21 -6 -20 -32 4 -11 10 -34 22 -49 25 -20 5 -29 13 -29 26 0 27 -50 78
-85 88 -16 4 -43 4 -59 0z"/>
</g>
</svg>
